<?xml version="1.0" encoding="UTF-8"?> <svg xmlns="http://www.w3.org/2000/svg" width="27" height="27" viewBox="0 0 27 27" fill="none"> <path d="M13.5 0C6.04415 0 0 6.04415 0 13.5C0 20.9558 6.04415 27 13.5 27C20.9558 27 27 20.9558 27 13.5C27 6.04415 20.9558 0 13.5 0ZM20.5168 8.53959L18.1191 19.9863C18.0901 20.1248 18.0267 20.2537 17.9349 20.3613C17.843 20.4689 17.7256 20.5516 17.5935 20.602C17.4612 20.6524 17.3185 20.6687 17.1784 20.6495C17.0382 20.6304 16.9052 20.5763 16.7914 20.4922L13.3037 17.9156L11.1908 19.9089C11.1631 19.935 11.1305 19.9553 11.0949 19.9687C11.0593 19.9821 11.0214 19.9882 10.9834 19.9867C10.9454 19.9853 10.9081 19.9763 10.8736 19.9603C10.8391 19.9442 10.8082 19.9215 10.7826 19.8934L10.7372 19.8435L11.1043 16.2905L17.7216 10.2445C17.7544 10.2146 17.7747 10.1736 17.7787 10.1295C17.7827 10.0854 17.7699 10.0414 17.7431 10.0062C17.7162 9.97096 17.677 9.94713 17.6334 9.93932C17.5899 9.93157 17.5449 9.94038 17.5075 9.96411L9.04474 15.3203L5.4 14.0963C5.30307 14.0637 5.21863 14.002 5.1582 13.9195C5.09777 13.837 5.06434 13.7379 5.06249 13.6357C5.06064 13.5334 5.09047 13.4332 5.14787 13.3486C5.20528 13.264 5.28747 13.1992 5.38313 13.1632L19.6436 7.79119C19.7536 7.74979 19.8727 7.73872 19.9884 7.75907C20.1042 7.77948 20.2123 7.83058 20.3016 7.9071C20.3908 7.98356 20.4579 8.0826 20.4957 8.19387C20.5336 8.30514 20.5408 8.42453 20.5168 8.53959Z" fill="#E0016C"></path> </svg> 