<?xml version="1.0" encoding="UTF-8"?> <svg xmlns="http://www.w3.org/2000/svg" width="27" height="27" viewBox="0 0 27 27" fill="none"> <path d="M13.176 15.7679C14.4882 15.7679 15.552 14.7041 15.552 13.3919C15.552 12.0796 14.4882 11.0159 13.176 11.0159C11.8638 11.0159 10.8 12.0796 10.8 13.3919C10.8 14.7041 11.8638 15.7679 13.176 15.7679Z" fill="#E0016C"></path> <path d="M16.1461 7.55994H10.2061C9.34212 7.55994 8.58617 7.82994 8.10017 8.31594C7.61417 8.80194 7.34412 9.55794 7.34412 10.4219V16.3619C7.34412 17.2259 7.61412 17.9819 8.15412 18.5219C8.69412 19.0079 9.39617 19.2779 10.2602 19.2779H16.1461C17.0101 19.2779 17.7661 19.0079 18.2521 18.5219C18.7921 18.0359 19.0621 17.2799 19.0621 16.4159V10.4759C19.0621 9.61194 18.7921 8.90994 18.3061 8.36994C17.7661 7.82994 17.0641 7.55994 16.1461 7.55994ZM13.1761 17.0639C11.1242 17.0639 9.50412 15.3899 9.50412 13.3919C9.50412 11.3399 11.1781 9.71994 13.1761 9.71994C15.1742 9.71994 16.9021 11.3399 16.9021 13.3919C16.9021 15.4439 15.2281 17.0639 13.1761 17.0639ZM17.0102 10.4219C16.5242 10.4219 16.1461 10.0439 16.1461 9.55794C16.1461 9.07194 16.5242 8.69388 17.0102 8.69388C17.4962 8.69388 17.8741 9.07194 17.8741 9.55794C17.8741 10.0439 17.4962 10.4219 17.0102 10.4219Z" fill="#E0016C"></path> <path d="M13.284 0C5.93997 0 0 5.93997 0 13.284C0 20.628 5.93997 26.568 13.284 26.568C20.628 26.568 26.568 20.628 26.568 13.284C26.622 5.93997 20.628 0 13.284 0ZM20.358 16.416C20.358 17.658 19.926 18.738 19.17 19.494C18.414 20.25 17.334 20.628 16.146 20.628H10.26C9.07203 20.628 7.99203 20.25 7.23603 19.494C6.42603 18.738 6.04803 17.658 6.04803 16.416V10.476C6.04803 7.99203 7.72203 6.26403 10.26 6.26403H16.2C17.442 6.26403 18.468 6.69603 19.224 7.45203C19.98 8.20803 20.358 9.23403 20.358 10.476V16.416Z" fill="#E0016C"></path> </svg> 